<svg id="visual" viewBox="0 0 960 540" width="960" height="540" xmlns="http://www.w3.org/2000/svg" xmlns:xlink="http://www.w3.org/1999/xlink" version="1.1"><path d="M0 82L17.8 76.7C35.7 71.3 71.3 60.7 106.8 62.5C142.3 64.3 177.7 78.7 213.2 84C248.7 89.3 284.3 85.7 320 76.7C355.7 67.7 391.3 53.3 426.8 51.5C462.3 49.7 497.7 60.3 533.2 70.2C568.7 80 604.3 89 640 88.2C675.7 87.3 711.3 76.7 746.8 70.3C782.3 64 817.7 62 853.2 60.2C888.7 58.3 924.3 56.7 942.2 55.8L960 55L960 0L942.2 0C924.3 0 888.7 0 853.2 0C817.7 0 782.3 0 746.8 0C711.3 0 675.7 0 640 0C604.3 0 568.7 0 533.2 0C497.7 0 462.3 0 426.8 0C391.3 0 355.7 0 320 0C284.3 0 248.7 0 213.2 0C177.7 0 142.3 0 106.8 0C71.3 0 35.7 0 17.8 0L0 0Z" fill="#276cdb"></path><path d="M0 152L17.8 146.7C35.7 141.3 71.3 130.7 106.8 131.7C142.3 132.7 177.7 145.3 213.2 147.2C248.7 149 284.3 140 320 126.5C355.7 113 391.3 95 426.8 97.7C462.3 100.3 497.7 123.7 533.2 136.2C568.7 148.7 604.3 150.3 640 141.3C675.7 132.3 711.3 112.7 746.8 107.3C782.3 102 817.7 111 853.2 112.8C888.7 114.7 924.3 109.3 942.2 106.7L960 104L960 53L942.2 53.8C924.3 54.7 888.7 56.3 853.2 58.2C817.7 60 782.3 62 746.8 68.3C711.3 74.7 675.7 85.3 640 86.2C604.3 87 568.7 78 533.2 68.2C497.7 58.3 462.3 47.7 426.8 49.5C391.3 51.3 355.7 65.7 320 74.7C284.3 83.7 248.7 87.3 213.2 82C177.7 76.7 142.3 62.3 106.8 60.5C71.3 58.7 35.7 69.3 17.8 74.7L0 80Z" fill="#2365d2"></path><path d="M0 212L17.8 214.7C35.7 217.3 71.3 222.7 106.8 231.7C142.3 240.7 177.7 253.3 213.2 249.7C248.7 246 284.3 226 320 209.7C355.7 193.3 391.3 180.7 426.8 188.8C462.3 197 497.7 226 533.2 242.3C568.7 258.7 604.3 262.3 640 247C675.7 231.7 711.3 197.3 746.8 185.5C782.3 173.7 817.7 184.3 853.2 190.7C888.7 197 924.3 199 942.2 200L960 201L960 102L942.2 104.7C924.3 107.3 888.7 112.7 853.2 110.8C817.7 109 782.3 100 746.8 105.3C711.3 110.7 675.7 130.3 640 139.3C604.3 148.3 568.7 146.7 533.2 134.2C497.7 121.7 462.3 98.3 426.8 95.7C391.3 93 355.7 111 320 124.5C284.3 138 248.7 147 213.2 145.2C177.7 143.3 142.3 130.7 106.8 129.7C71.3 128.7 35.7 139.3 17.8 144.7L0 150Z" fill="#1f5fc9"></path><path d="M0 255L17.8 256.8C35.7 258.7 71.3 262.3 106.8 272.2C142.3 282 177.7 298 213.2 291.7C248.7 285.3 284.3 256.7 320 240.5C355.7 224.3 391.3 220.7 426.8 229.7C462.3 238.7 497.7 260.3 533.2 272C568.7 283.7 604.3 285.3 640 276.3C675.7 267.3 711.3 247.7 746.8 243.2C782.3 238.7 817.7 249.3 853.2 248.3C888.7 247.3 924.3 234.7 942.2 228.3L960 222L960 199L942.2 198C924.3 197 888.7 195 853.2 188.7C817.7 182.3 782.3 171.7 746.8 183.5C711.3 195.3 675.7 229.7 640 245C604.3 260.3 568.7 256.7 533.2 240.3C497.7 224 462.3 195 426.8 186.8C391.3 178.7 355.7 191.3 320 207.7C284.3 224 248.7 244 213.2 247.7C177.7 251.3 142.3 238.7 106.8 229.7C71.3 220.7 35.7 215.3 17.8 212.7L0 210Z" fill="#1a58c0"></path><path d="M0 417L17.8 419.7C35.7 422.3 71.3 427.7 106.8 429.5C142.3 431.3 177.7 429.7 213.2 425.2C248.7 420.7 284.3 413.3 320 392.5C355.7 371.7 391.3 337.3 426.8 327.5C462.3 317.7 497.7 332.3 533.2 340.5C568.7 348.7 604.3 350.3 640 352C675.7 353.7 711.3 355.3 746.8 367C782.3 378.7 817.7 400.3 853.2 395C888.7 389.7 924.3 357.3 942.2 341.2L960 325L960 220L942.2 226.3C924.3 232.7 888.7 245.3 853.2 246.3C817.7 247.3 782.3 236.7 746.8 241.2C711.3 245.7 675.7 265.3 640 274.3C604.3 283.3 568.7 281.7 533.2 270C497.7 258.3 462.3 236.7 426.8 227.7C391.3 218.7 355.7 222.3 320 238.5C284.3 254.7 248.7 283.3 213.2 289.7C177.7 296 142.3 280 106.8 270.2C71.3 260.3 35.7 256.7 17.8 254.8L0 253Z" fill="#1551b7"></path><path d="M0 449L17.8 454.5C35.7 460 71.3 471 106.8 472C142.3 473 177.7 464 213.2 455C248.7 446 284.3 437 320 419C355.7 401 391.3 374 426.8 370.3C462.3 366.7 497.7 386.3 533.2 392.5C568.7 398.7 604.3 391.3 640 391.3C675.7 391.3 711.3 398.7 746.8 411.3C782.3 424 817.7 442 853.2 434.8C888.7 427.7 924.3 395.3 942.2 379.2L960 363L960 323L942.2 339.2C924.3 355.3 888.7 387.7 853.2 393C817.7 398.3 782.3 376.7 746.8 365C711.3 353.3 675.7 351.7 640 350C604.3 348.3 568.7 346.7 533.2 338.5C497.7 330.3 462.3 315.7 426.8 325.5C391.3 335.3 355.7 369.7 320 390.5C284.3 411.3 248.7 418.7 213.2 423.2C177.7 427.7 142.3 429.3 106.8 427.5C71.3 425.7 35.7 420.3 17.8 417.7L0 415Z" fill="#0f4baf"></path><path d="M0 541L17.8 541C35.7 541 71.3 541 106.8 541C142.3 541 177.7 541 213.2 541C248.7 541 284.3 541 320 541C355.7 541 391.3 541 426.8 541C462.3 541 497.7 541 533.2 541C568.7 541 604.3 541 640 541C675.7 541 711.3 541 746.8 541C782.3 541 817.7 541 853.2 541C888.7 541 924.3 541 942.2 541L960 541L960 361L942.2 377.2C924.3 393.3 888.7 425.7 853.2 432.8C817.7 440 782.3 422 746.8 409.3C711.3 396.7 675.7 389.3 640 389.3C604.3 389.3 568.7 396.7 533.2 390.5C497.7 384.3 462.3 364.7 426.8 368.3C391.3 372 355.7 399 320 417C284.3 435 248.7 444 213.2 453C177.7 462 142.3 471 106.8 470C71.3 469 35.7 458 17.8 452.5L0 447Z" fill="#0744a6"></path></svg>